#N canvas 159 484 450 300 12;
#X obj 39 30 fraise_interface;
#X obj 40 133 station PU;
#N canvas 98 605 450 300 datadir 0;
#X obj 20 24 loadbang;
#X obj 187 25 inlet;
#X msg 187 49 dir;
#X obj 187 73 pdcontrol;
#X msg 187 97 symbol \$1/testdata;
#X obj 187 161 s datadir;
#X msg 20 102 symbol /mnt/sda1;
#X obj 88 24 r POWER;
#X obj 88 52 sel 0;
#X connect 0 0 6 0;
#X connect 1 0 2 0;
#X connect 2 0 3 0;
#X connect 3 0 4 0;
#X connect 4 0 5 0;
#X connect 6 0 5 0;
#X connect 7 0 8 0;
#X connect 8 0 6 0;
#X restore 40 96 pd datadir;
#X obj 40 73 bng 19 250 50 0 empty empty testdata 0 -10 0 12 #fcfcfc #000000 #000000;
#X obj 41 154 station GO;
#X obj 41 177 station PO;
#X obj 42 198 station BE;
#X obj 42 220 station OC;
#X obj 42 241 station NONE;
#X obj 229 108 player;
#X obj 309 36 loadbang;
#X msg 309 60 \; pd dsp 1;
#X connect 3 0 2 0;
#X connect 10 0 11 0;
