#N canvas 981 81 663 592 10;
#X declare -path Fraise;
#X obj 22 237 analog/parse;
#X obj 22 207 fruit/receive fruit1;
#X msg 128 527 L\$1;
#X obj 128 504 tgl 15 0 empty empty set_LED 18 7 0 10 #00fc04 #000000 #000000 0 1;
#X obj 219 468 tgl 15 0 empty empty empty 17 7 0 10 #fcfcfc #000000 #000000 0 1;
#X msg 270 443 20;
#X floatatom 270 465 5 2 1000 0 - - - 0;
#X msg 300 442 100;
#X obj 219 487 metro 100;
#X obj 21 38 pied/pied 0 41424;
#X obj 23 553 fruit/send fruit1;
#X obj 21 16 declare -path Fraise;
#X obj 19 141 fruit/fruit 1 fruit1 10 radioFW;
#X obj 397 402 clip 0 1;
#X floatatom 68 451 5 0 0 0 - - - 0;
#X obj 397 380 / 15000;
#X obj 397 359 - 1450;
#X obj 397 427 pow 0.6;
#X obj 47 287 / 32700;
#X obj 47 307 clip 0 1;
#X obj 47 328 s VOLUME;
#X obj 22 262 route 0 1;
#X obj 457 366 hsl 136 16 0 1 0 0 empty empty empty -2 -8 0 10 #fcfcfc #000000 #000000 0 1;
#X obj 119 237 route s;
#X obj 119 258 route 0 1 2 3 4 5, f 33;
#X obj 119 292 tgl 16 0 empty empty empty 0 -8 0 10 #fcfcfc #000000 #000000 0 1;
#X obj 119 330 s POWER;
#X obj 146 279 tgl 16 0 empty empty empty 0 -8 0 10 #fcfcfc #000000 #000000 0 1;
#X obj 184 281 tgl 16 0 empty empty empty 0 -8 0 10 #fcfcfc #000000 #000000 0 1;
#X obj 216 280 tgl 16 0 empty empty empty 0 -8 0 10 #fcfcfc #000000 #000000 0 1;
#X obj 249 281 tgl 16 0 empty empty empty 0 -8 0 10 #fcfcfc #000000 #000000 0 1;
#X obj 281 280 tgl 16 0 empty empty empty 0 -8 0 10 #fcfcfc #000000 #000000 0 1;
#X msg 24 512 c 1 i \$1;
#X obj 23 477 hsl 136 16 0 1023 0 0 empty empty empty -2 -8 0 10 #fcfcfc #000000 #000000 0 1;
#X obj 125 409 r POWER;
#X obj 125 430 * 1023;
#X obj 22 400 s TUNING_RAW;
#X obj 397 336 r TUNING_RAW;
#X obj 397 448 s TUNING;
#N canvas 315 273 450 371 which 0;
#X obj 30 19 inlet;
#X obj 30 40 t a a, f 32;
#X obj 30 61 route 0 1 2 3 4, f 22;
#X msg 219 74 \$2 \$1;
#X obj 219 95 route 1;
#X obj 40 89 t b f;
#X obj 80 90 t b f;
#X obj 123 90 t b f;
#X obj 163 91 t b f;
#X obj 30 112 +;
#X obj 70 113 +;
#X obj 113 113 +;
#X obj 153 114 +;
#X obj 30 133 sel 0;
#X msg 30 154 NONE;
#X obj 219 116 route 0 1 2 3 4, f 30;
#X msg 219 137 PU;
#X msg 253 137 GO;
#X msg 288 139 PO;
#X msg 322 139 BE;
#X msg 359 137 OC;
#X obj 30 216 symbol;
#X obj 30 303 outlet;
#X obj 30 237 t b s, f 9;
#X obj 30 258 del 50;
#X obj 30 279 symbol, f 9;
#X connect 0 0 1 0;
#X connect 1 0 2 0;
#X connect 1 1 3 0;
#X connect 2 0 9 0;
#X connect 2 1 10 0;
#X connect 2 2 11 0;
#X connect 2 3 12 0;
#X connect 2 4 8 0;
#X connect 3 0 4 0;
#X connect 4 0 15 0;
#X connect 5 0 9 0;
#X connect 5 1 9 1;
#X connect 6 0 10 0;
#X connect 6 1 10 1;
#X connect 7 0 11 0;
#X connect 7 1 11 1;
#X connect 8 0 12 0;
#X connect 8 1 12 1;
#X connect 9 0 13 0;
#X connect 10 0 5 0;
#X connect 11 0 6 0;
#X connect 12 0 7 0;
#X connect 13 0 14 0;
#X connect 14 0 21 0;
#X connect 15 0 16 0;
#X connect 15 1 17 0;
#X connect 15 2 18 0;
#X connect 15 3 19 0;
#X connect 15 4 20 0;
#X connect 16 0 21 0;
#X connect 17 0 21 0;
#X connect 18 0 21 0;
#X connect 19 0 21 0;
#X connect 20 0 21 0;
#X connect 21 0 23 0;
#X connect 23 0 24 0;
#X connect 23 1 25 1;
#X connect 24 0 25 0;
#X connect 25 0 22 0;
#X restore 216 331 pd which;
#X msg 146 300 0 \$1;
#X msg 184 302 1 \$1;
#X msg 216 302 2 \$1;
#X msg 250 302 3 \$1;
#X msg 285 301 4 \$1;
#X symbolatom 249 354 10 0 0 0 - - - 0;
#X obj 216 377 s STATION;
#X obj 69 359 hsl 136 16 0 1 0 0 empty empty empty -2 -8 0 10 #fcfcfc #000000 #000000 0 1;
#X connect 0 0 21 0;
#X connect 0 1 23 0;
#X connect 1 0 0 0;
#X connect 2 0 10 1;
#X connect 3 0 2 0;
#X connect 4 0 8 0;
#X connect 5 0 6 0;
#X connect 6 0 8 1;
#X connect 7 0 6 0;
#X connect 8 0 3 0;
#X connect 13 0 17 0;
#X connect 15 0 13 0;
#X connect 16 0 15 0;
#X connect 17 0 38 0;
#X connect 18 0 19 0;
#X connect 19 0 20 0;
#X connect 21 0 36 0;
#X connect 21 1 18 0;
#X connect 22 0 38 0;
#X connect 23 0 24 0;
#X connect 24 0 25 0;
#X connect 24 1 27 0;
#X connect 24 2 28 0;
#X connect 24 3 29 0;
#X connect 24 4 30 0;
#X connect 24 5 31 0;
#X connect 25 0 26 0;
#X connect 27 0 40 0;
#X connect 28 0 41 0;
#X connect 29 0 42 0;
#X connect 30 0 43 0;
#X connect 31 0 44 0;
#X connect 32 0 10 0;
#X connect 33 0 32 0;
#X connect 34 0 35 0;
#X connect 35 0 33 0;
#X connect 37 0 16 0;
#X connect 39 0 45 0;
#X connect 39 0 46 0;
#X connect 40 0 39 0;
#X connect 41 0 39 0;
#X connect 42 0 39 0;
#X connect 43 0 39 0;
#X connect 44 0 39 0;
#X connect 47 0 20 0;
