#N canvas 1231 117 663 858 10;
#X declare -path Fraise;
#X obj 22 237 analog/parse;
#X obj 22 207 fruit/receive fruit1;
#X msg 128 527 L\$1;
#X obj 128 504 tgl 15 0 empty empty set_LED 18 7 0 10 #00fc04 #000000 #000000 0 1;
#X obj 219 468 tgl 15 0 empty empty empty 17 7 0 10 #fcfcfc #000000 #000000 0 1;
#X msg 270 443 20;
#X floatatom 270 465 5 2 1000 0 - - - 0;
#X msg 300 442 100;
#X obj 219 487 metro 100;
#X obj 21 38 pied/pied 0 41424;
#X obj 23 553 fruit/send fruit1;
#X obj 21 16 declare -path Fraise;
#X obj 19 141 fruit/fruit 1 fruit1 10 radioFW;
#X floatatom 236 589 5 0 0 0 - - - 24;
#X obj 397 484 * 30;
#X obj 491 579 nbx 5 14 -1e+37 1e+37 0 0 empty empty empty 0 -8 0 10 #fcfcfc #000000 #000000 0 256;
#X obj 397 402 clip 0 1;
#X floatatom 68 451 5 0 0 0 - - - 0;
#X obj 397 380 / 15000;
#X obj 225 681 * 2;
#X obj 225 723 mtof;
#X obj 225 744 phasor~;
#X obj 258 810 *~ 0.2;
#X obj 258 831 dac~;
#X floatatom 491 686 5 0 0 0 - - - 0;
#X obj 525 536 wrap;
#X obj 392 618 * 3.14159;
#X obj 388 686 clip 0 1;
#X obj 329 729 noise~;
#X obj 329 750 *~;
#X msg 279 730 1 \$1;
#X obj 279 751 -;
#X obj 232 772 *~;
#X obj 245 659 i;
#X obj 240 632 + 0.5;
#X obj 392 639 sin;
#X obj 392 573 * 2;
#X obj 392 595 - 0.5;
#X obj 390 663 + 0.8;
#X obj 397 359 - 1450;
#X obj 225 702 + 30;
#X obj 397 427 pow 0.6;
#X obj 47 287 / 32700;
#X obj 47 307 clip 0 1;
#X obj 47 328 s VOLUME;
#X obj 22 262 route 0 1;
#X obj 73 366 hsl 136 16 0 1 0 0 empty empty empty -2 -8 0 10 #fcfcfc #000000 #000000 0 1;
#X obj 119 237 route s;
#X obj 119 258 route 0 1 2 3 4 5, f 33;
#X obj 119 292 tgl 16 0 empty empty empty 0 -8 0 10 #fcfcfc #000000 #000000 0 1;
#X obj 119 330 s POWER;
#X obj 146 279 tgl 16 0 empty empty empty 0 -8 0 10 #fcfcfc #000000 #000000 0 1;
#X obj 184 281 tgl 16 0 empty empty empty 0 -8 0 10 #fcfcfc #000000 #000000 0 1;
#X obj 216 280 tgl 16 0 empty empty empty 0 -8 0 10 #fcfcfc #000000 #000000 0 1;
#X obj 249 281 tgl 16 0 empty empty empty 0 -8 0 10 #fcfcfc #000000 #000000 0 1;
#X obj 281 280 tgl 16 0 empty empty empty 0 -8 0 10 #fcfcfc #000000 #000000 0 1;
#X msg 24 512 c 1 i \$1;
#X obj 23 477 hsl 136 16 0 1023 0 0 empty empty empty -2 -8 0 10 #fcfcfc #000000 #000000 0 1;
#X obj 125 409 r POWER;
#X obj 125 430 * 1023;
#X obj 388 746 r VOLUME;
#X obj 388 767 * 0.5;
#X obj 22 400 s TUNING_RAW;
#X obj 397 336 r TUNING_RAW;
#X obj 397 448 s TUNING;
#N canvas 315 273 450 371 which 0;
#X obj 30 19 inlet;
#X obj 30 40 t a a, f 32;
#X obj 30 61 route 0 1 2 3 4, f 22;
#X msg 219 74 \$2 \$1;
#X obj 219 95 route 1;
#X obj 40 89 t b f;
#X obj 80 90 t b f;
#X obj 123 90 t b f;
#X obj 163 91 t b f;
#X obj 30 112 +;
#X obj 70 113 +;
#X obj 113 113 +;
#X obj 153 114 +;
#X obj 30 133 sel 0;
#X msg 30 154 NONE;
#X obj 219 116 route 0 1 2 3 4, f 30;
#X msg 219 137 PU;
#X msg 253 137 GO;
#X msg 288 139 PO;
#X msg 322 139 BE;
#X msg 359 137 OC;
#X obj 30 216 symbol;
#X obj 30 303 outlet;
#X obj 30 237 t b s, f 9;
#X obj 30 258 del 50;
#X obj 30 279 symbol, f 9;
#X connect 0 0 1 0;
#X connect 1 0 2 0;
#X connect 1 1 3 0;
#X connect 2 0 9 0;
#X connect 2 1 10 0;
#X connect 2 2 11 0;
#X connect 2 3 12 0;
#X connect 2 4 8 0;
#X connect 3 0 4 0;
#X connect 4 0 15 0;
#X connect 5 0 9 0;
#X connect 5 1 9 1;
#X connect 6 0 10 0;
#X connect 6 1 10 1;
#X connect 7 0 11 0;
#X connect 7 1 11 1;
#X connect 8 0 12 0;
#X connect 8 1 12 1;
#X connect 9 0 13 0;
#X connect 10 0 5 0;
#X connect 11 0 6 0;
#X connect 12 0 7 0;
#X connect 13 0 14 0;
#X connect 14 0 21 0;
#X connect 15 0 16 0;
#X connect 15 1 17 0;
#X connect 15 2 18 0;
#X connect 15 3 19 0;
#X connect 15 4 20 0;
#X connect 16 0 21 0;
#X connect 17 0 21 0;
#X connect 18 0 21 0;
#X connect 19 0 21 0;
#X connect 20 0 21 0;
#X connect 21 0 23 0;
#X connect 23 0 24 0;
#X connect 23 1 25 1;
#X connect 24 0 25 0;
#X connect 25 0 22 0;
#X restore 216 331 pd which;
#X msg 146 300 0 \$1;
#X msg 184 302 1 \$1;
#X msg 216 302 2 \$1;
#X msg 250 302 3 \$1;
#X msg 285 301 4 \$1;
#X symbolatom 249 354 10 0 0 0 - - - 0;
#X obj 216 377 s STATION;
#X connect 0 0 45 0;
#X connect 0 1 47 0;
#X connect 1 0 0 0;
#X connect 2 0 10 1;
#X connect 3 0 2 0;
#X connect 4 0 8 0;
#X connect 5 0 6 0;
#X connect 6 0 8 1;
#X connect 7 0 6 0;
#X connect 8 0 3 0;
#X connect 13 0 34 0;
#X connect 14 0 13 0;
#X connect 14 0 36 0;
#X connect 16 0 41 0;
#X connect 18 0 16 0;
#X connect 19 0 40 0;
#X connect 20 0 21 0;
#X connect 21 0 32 0;
#X connect 22 0 23 0;
#X connect 26 0 35 0;
#X connect 27 0 29 1;
#X connect 27 0 30 0;
#X connect 28 0 29 0;
#X connect 29 0 22 0;
#X connect 30 0 31 0;
#X connect 31 0 32 1;
#X connect 32 0 22 0;
#X connect 33 0 19 0;
#X connect 34 0 33 0;
#X connect 35 0 24 0;
#X connect 35 0 38 0;
#X connect 36 0 37 0;
#X connect 37 0 26 0;
#X connect 38 0 27 0;
#X connect 39 0 18 0;
#X connect 40 0 20 0;
#X connect 41 0 64 0;
#X connect 42 0 43 0;
#X connect 43 0 44 0;
#X connect 45 0 62 0;
#X connect 45 1 42 0;
#X connect 47 0 48 0;
#X connect 48 0 49 0;
#X connect 48 1 51 0;
#X connect 48 2 52 0;
#X connect 48 3 53 0;
#X connect 48 4 54 0;
#X connect 48 5 55 0;
#X connect 49 0 50 0;
#X connect 51 0 66 0;
#X connect 52 0 67 0;
#X connect 53 0 68 0;
#X connect 54 0 69 0;
#X connect 55 0 70 0;
#X connect 56 0 10 0;
#X connect 57 0 56 0;
#X connect 58 0 59 0;
#X connect 59 0 57 0;
#X connect 60 0 61 0;
#X connect 61 0 22 1;
#X connect 63 0 39 0;
#X connect 65 0 71 0;
#X connect 65 0 72 0;
#X connect 66 0 65 0;
#X connect 67 0 65 0;
#X connect 68 0 65 0;
#X connect 69 0 65 0;
#X connect 70 0 65 0;
