#N canvas 994 149 450 300 12;
#X obj 174 127 snapshot~;
#X obj 174 70 tgl 19 0 empty empty empty 0 -10 0 12 #fcfcfc #000000 #000000 0 1;
#X obj 174 43 loadbang;
#X obj 119 41 inlet~;
#X obj 174 97 metro 40;
#X floatatom 103 119 8 0 0 0 - - - 0;
#X connect 0 0 5 0;
#X connect 1 0 4 0;
#X connect 2 0 1 0;
#X connect 3 0 0 0;
#X connect 4 0 0 0;
#X coords 0 -1 1 1 70 40 1 100 100;
