#N canvas 162 329 450 330 12;
#X obj 27 27 r TUNING;
#X obj 149 29 r STATION;
#X obj 149 53 t b s, f 9;
#X obj 149 104 text size;
#X msg 209 78 symbol list-\$1;
#X obj 27 51 *;
#X obj 149 127 + 1;
#X connect 0 0 5 0;
#X connect 1 0 2 0;
#X connect 2 0 3 0;
#X connect 2 1 4 0;
#X connect 3 0 6 0;
#X connect 4 0 3 1;
#X connect 6 0 5 1;
