#N canvas 163 354 603 417 12;
#X obj 38 38 r TUNING;
#X obj 185 17 r STATION;
#X obj 185 41 t b s, f 9;
#X obj 185 92 text size;
#X msg 245 66 symbol list-\$1;
#X obj 185 115 + 1;
#X floatatom 218 118 5 0 0 0 - - - 0;
#X obj 39 214 voice 0;
#X obj 104 214 voice 1;
#X msg 38 62 \$1 30;
#X obj 38 86 line~;
#X obj 38 117 *~;
#N canvas 680 133 512 362 noise 1;
#X obj 152 47 inlet~;
#X obj 51 120 noise~;
#X obj 44 270 *~, f 9;
#X obj 261 223 *~ 2;
#X obj 253 258 *~ 3.14159;
#X obj 153 144 +~ 0.8;
#X obj 153 119 cos~;
#X obj 153 172 clip~ 0 1;
#X obj 44 294 outlet~;
#X obj 274 95 metro 20;
#X obj 274 125 snapshot~;
#X floatatom 274 181 5 0 0 0 - - - 0;
#X obj 274 68 tgl 19 0 empty empty empty 0 -10 0 12 #fcfcfc #000000 #000000 0 1;
#X obj 274 41 loadbang;
#X obj 274 153 change;
#X obj 153 77 -~ 0.5;
#X obj 50 192 lop~ 8000;
#X obj 10 169 lop~ 60;
#X obj 10 193 *~ 10;
#X obj 44 240 clip~ -1 0.5;
#X obj 17 81 osc~ 80;
#X obj 69 216 hip~ 5;
#X obj 152 199 *~ 0.2;
#X connect 0 0 15 0;
#X connect 0 0 10 0;
#X connect 1 0 16 0;
#X connect 1 0 17 0;
#X connect 2 0 8 0;
#X connect 5 0 7 0;
#X connect 5 0 21 0;
#X connect 6 0 5 0;
#X connect 7 0 22 0;
#X connect 9 0 10 0;
#X connect 10 0 14 0;
#X connect 12 0 9 0;
#X connect 14 0 11 0;
#X connect 15 0 6 0;
#X connect 16 0 19 0;
#X connect 17 0 18 0;
#X connect 18 0 19 0;
#X connect 19 0 2 0;
#X connect 20 0 19 0;
#X connect 21 0 19 0;
#X connect 22 0 2 1;
#X restore 183 211 pd noise;
#X obj 39 315 *~;
#X obj 85 315 *~;
#X obj 274 177 r VOLUME;
#X obj 274 204 * 0.5;
#X obj 274 253 line~;
#X msg 274 229 \$1 10;
#X obj 40 352 dac~, f 7;
#X obj 396 31 loadbang;
#X obj 396 55 s RESET_TIMERS;
#X obj 373 32 bng 19 250 50 0 empty empty empty 0 -10 0 12 #fcfcfc #000000 #000000;
#X connect 0 0 9 0;
#X connect 1 0 2 0;
#X connect 2 0 3 0;
#X connect 2 1 4 0;
#X connect 3 0 5 0;
#X connect 3 0 6 0;
#X connect 4 0 3 1;
#X connect 5 0 11 1;
#X connect 7 0 13 0;
#X connect 7 1 14 0;
#X connect 8 0 13 0;
#X connect 8 1 14 0;
#X connect 9 0 10 0;
#X connect 10 0 11 0;
#X connect 11 0 12 0;
#X connect 11 0 7 0;
#X connect 11 0 8 0;
#X connect 12 0 13 0;
#X connect 12 0 14 0;
#X connect 13 0 19 0;
#X connect 14 0 19 1;
#X connect 15 0 16 0;
#X connect 16 0 18 0;
#X connect 17 0 14 1;
#X connect 17 0 13 1;
#X connect 18 0 17 0;
#X connect 20 0 21 0;
#X connect 22 0 21 0;
