#N canvas 536 119 493 514 12;
#X obj 29 19 r datadir;
#X msg 29 72 symbol \$1/\$2;
#X obj 29 46 list append \$1;
#X symbolatom 45 96 0 0 0 0 - - - 0;
#X obj 27 239 file glob;
#X msg 27 206 symbol \$1/*.wav;
#X obj 27 263 unpack s f;
#X obj 27 287 spigot;
#X obj 94 288 == 0;
#X obj 27 179 t a b, f 19;
#X msg 157 203 clear;
#X obj 27 322 t s s, f 8;
#X obj 80 375 soundfiler;
#X msg 80 349 read \$1;
#X obj 27 437 pack s f;
#X obj 80 406 / 44.1;
#X obj 29 120 s datadir-\$1;
#X obj 27 151 r datadir-\$1;
#X obj 157 228 text define list-\$1;
#X obj 27 463 text insert list-\$1 0;
#X connect 0 0 2 0;
#X connect 1 0 3 0;
#X connect 1 0 16 0;
#X connect 2 0 1 0;
#X connect 4 0 6 0;
#X connect 5 0 4 0;
#X connect 6 0 7 0;
#X connect 6 1 8 0;
#X connect 7 0 11 0;
#X connect 8 0 7 1;
#X connect 9 0 5 0;
#X connect 9 1 10 0;
#X connect 10 0 18 0;
#X connect 11 0 14 0;
#X connect 11 1 13 0;
#X connect 12 0 15 0;
#X connect 13 0 12 0;
#X connect 14 0 19 0;
#X connect 15 0 14 1;
#X connect 17 0 9 0;
