#N canvas 315 68 673 827 12;
#X obj 137 18 inlet~;
#X obj 128 620 readsf~ 2 1e+06, f 18;
#X obj 129 793 outlet~;
#X obj 215 790 outlet~;
#X obj 138 132 cos~;
#X obj 138 193 clip~ 0 1;
#X obj 138 57 +~ \$1;
#X obj 274 95 metro 20;
#X obj 274 125 snapshot~;
#X floatatom 230 307 5 0 0 0 - - - 0;
#X obj 274 68 tgl 19 0 empty empty empty 0 -10 0 12 #fcfcfc #000000 #000000 0 1;
#X obj 274 41 loadbang;
#X obj 274 249 change;
#X obj 139 99 *~ 0.5;
#X obj 138 157 +~ 0;
#X obj 274 226 i;
#X obj 274 201 / 2;
#X obj 274 302 + \$1;
#X obj 274 276 * 2;
#X obj 274 151 + 1;
#X obj 274 176 - \$1;
#X obj 349 117 r STATION;
#X obj 349 141 b;
#X obj 349 165 del 1;
#X msg 316 220 set -1;
#X obj 274 334 f;
#X obj 327 335 r STATION;
#X msg 327 360 symbol list-\$1;
#X obj 274 384 text get;
#X obj 274 411 unpack s f, f 13;
#X obj 253 643 b;
#X obj 253 667 del 100;
#X obj 274 359 t f b;
#X msg 286 642 stop;
#X obj 142 654 *~;
#X obj 189 655 *~;
#X obj 329 459 r RESET_TIMERS;
#X obj 329 484 timer;
#X obj 274 555 pack s f;
#X obj 329 507 fmod;
#X obj 362 435 t b f;
#X obj 329 531 * 44.1;
#X msg 274 581 stop \, open \$1 \$2 \, start;
#X obj 221 480 t b b;
#X msg 253 503 0;
#X obj 196 446 bng 19 250 50 0 empty empty empty 0 -10 0 12 #fcfcfc #000000 #000000;
#X obj 128 733 clip~ -1 1;
#X obj 214 736 clip~ -1 1;
#X obj 363 684 line~;
#X msg 362 659 \$1 5;
#X obj 382 626 hsl 162 19 0 2 0 0 empty empty empty -2 -10 0 12 #fcfcfc #000000 #000000 0 1;
#X obj 128 763 hip~ 5;
#X obj 214 763 hip~ 5;
#X obj 167 249 mon;
#X obj 33 147 cos~;
#X obj 14 543 mon;
#X obj 33 120 +~ 0.5;
#X obj 34 237 clip~ 0 2;
#X obj 33 172 +~ 1;
#X obj 33 205 *~ 2;
#X obj 21 275 -~ 0.25;
#X obj 20 307 clip~ 0 1;
#X obj 20 404 osc~;
#X obj 21 460 *~;
#X obj 20 432 +~ 1;
#X obj 39 500 +~;
#X obj 20 380 *~ 16000;
#X obj 349 192 t b b;
#X msg 379 220 stop;
#X connect 0 0 6 0;
#X connect 0 0 8 0;
#X connect 1 0 34 0;
#X connect 1 0 46 0;
#X connect 1 1 35 0;
#X connect 1 1 47 0;
#X connect 1 2 30 0;
#X connect 4 0 14 0;
#X connect 5 0 34 1;
#X connect 5 0 35 1;
#X connect 5 0 53 0;
#X connect 6 0 13 0;
#X connect 7 0 8 0;
#X connect 8 0 19 0;
#X connect 10 0 7 0;
#X connect 11 0 10 0;
#X connect 12 0 18 0;
#X connect 13 0 4 0;
#X connect 13 0 56 0;
#X connect 14 0 5 0;
#X connect 15 0 12 0;
#X connect 16 0 15 0;
#X connect 17 0 9 0;
#X connect 17 0 25 0;
#X connect 18 0 17 0;
#X connect 19 0 20 0;
#X connect 20 0 16 0;
#X connect 21 0 22 0;
#X connect 22 0 23 0;
#X connect 23 0 67 0;
#X connect 24 0 12 0;
#X connect 25 0 32 0;
#X connect 26 0 27 0;
#X connect 27 0 28 3;
#X connect 28 0 29 0;
#X connect 29 0 38 0;
#X connect 29 1 40 0;
#X connect 30 0 31 0;
#X connect 31 0 45 0;
#X connect 32 0 28 0;
#X connect 32 1 33 0;
#X connect 33 0 31 0;
#X connect 36 0 37 0;
#X connect 37 0 39 0;
#X connect 38 0 42 0;
#X connect 39 0 41 0;
#X connect 40 0 37 1;
#X connect 40 1 39 1;
#X connect 41 0 38 1;
#X connect 42 0 1 0;
#X connect 43 0 38 0;
#X connect 43 1 44 0;
#X connect 44 0 38 1;
#X connect 45 0 43 0;
#X connect 46 0 51 0;
#X connect 47 0 52 0;
#X connect 49 0 48 0;
#X connect 51 0 2 0;
#X connect 52 0 3 0;
#X connect 54 0 58 0;
#X connect 56 0 54 0;
#X connect 57 0 65 1;
#X connect 58 0 59 0;
#X connect 58 0 60 0;
#X connect 59 0 57 0;
#X connect 60 0 61 0;
#X connect 61 0 63 1;
#X connect 61 0 66 0;
#X connect 62 0 64 0;
#X connect 63 0 65 0;
#X connect 64 0 63 0;
#X connect 65 0 46 0;
#X connect 65 0 47 0;
#X connect 66 0 62 0;
#X connect 67 0 24 0;
#X connect 67 1 68 0;
#X connect 68 0 1 0;
#X connect 68 0 33 0;
